# xmcd
#
# Track frame offsets:
# 150
# 26293
# 27999
# 38486
# 44027
# 68149
# 83292
# 86335
# 107016
# 128126
# 129599
# 155679
# 157169
# 163166
# 170089
# 200373
# 222952
# 243396
#
# Disc length: 3820 seconds
#
#
# Revision: 0
# Processed by: cddbd v1.5.1PL2 Copyright (c) Steve Scherf et al.
# Submitted via: FreeRIP 2.945 
#
DISCID=ee0eea12
DTITLE=Heraldo doMonte - Cordas Vivas
DYEAR=1987
DGENRE=Choro
TTITLE0=Caboclo Elétrico
TTITLE1=Mordida de Abelha
TTITLE2=Moreneide
TTITLE3=Valsa p ra Tutuca
TTITLE4=Mareado
TTITLE5=Esperando a Feijoada
TTITLE6=Pingo a Pingo
TTITLE7=Coisa de Lá
TTITLE8=Dengosa - Walter Santos
TTITLE9=Teia de Aranha
TTITLE10=Um cantinho e dois Violões
TTITLE11=Fugidinha p ro d Alma
TTITLE12=Gisele
TTITLE13=Lágrima Nordestina
TTITLE14=Dois na Brincadeira
TTITLE15=Esquisitinho
TTITLE16=Pra Lourdes
TTITLE17=Meditando
EXTD=Todas as músicas são de \nautoria de Heraldo do Monte \nmenos a música Dengosa\nHeraldo do Monte - v. ovation - \nv.10-cavaco-guit base- bandolim\nHermeto Pascoal: zabumba-faluta-vocal\nWalter santos- guitarra -vocal\nEdson Jose Alves- v. ovation-pi
EXTD=colo-flute\nPernanbuco- percussions\nArismar do Espirito Santo- guitar base\nHelio Delmiro- guitarra\n
EXTT0=
EXTT1=
EXTT2=
EXTT3=
EXTT4=
EXTT5=
EXTT6=
EXTT7=
EXTT8=
EXTT9=
EXTT10=
EXTT11=
EXTT12=
EXTT13=
EXTT14=
EXTT15=
EXTT16=
EXTT17=
PLAYORDER=
